<svg xmlns="http://www.w3.org/2000/svg" viewBox="0 0 49 49" className="w-6 h-6">
                    <path fill="white" d="M46.8154 21.8505C43.9965 19.8882 38.6674 19.7388 32.2725 21.3624C32.1629 21.3923 32.0932 21.2429 32.2027 21.1831C37.8904 17.8462 41.576 14.0013 42.2035 10.6245C42.4525 9.31963 42.1736 8.21397 41.4266 7.50674C40.7293 6.75967 39.6236 6.48076 38.3088 6.71982C34.932 7.3374 31.0672 11.003 27.7104 16.6808C27.6506 16.7804 27.5012 16.7206 27.5311 16.6011C29.1846 10.2161 29.0451 4.88701 27.1127 2.05811C26.3955 1.03213 25.4691 0.444434 24.5029 0.414551H24.493H24.483C23.5168 0.444434 22.5904 1.02217 21.8832 2.05811C19.9309 4.88701 19.8113 10.2161 21.4648 16.5911C21.4947 16.7007 21.3453 16.7704 21.2855 16.6708C17.9287 10.9931 14.0639 7.3374 10.6871 6.71982C9.38223 6.48076 8.27656 6.75967 7.56934 7.50674C6.82227 8.21397 6.54336 9.31963 6.79238 10.6245C7.42988 14.0013 11.1055 17.8462 16.7932 21.1831C16.8928 21.2429 16.833 21.3923 16.7234 21.3624C10.3285 19.7388 5.00937 19.8882 2.18047 21.8505C1.13457 22.5776 0.556836 23.514 0.546875 24.5001C0.556836 25.4862 1.13457 26.4226 2.18047 27.1497C4.99941 29.112 10.3285 29.2614 16.7234 27.6378C16.833 27.6079 16.9027 27.7573 16.7932 27.8171C11.1055 31.154 7.41992 34.9989 6.79238 38.3757C6.54336 39.6806 6.82227 40.7862 7.56934 41.4935C8.2666 42.2405 9.37227 42.5194 10.6871 42.2804C14.0639 41.6628 17.9287 37.9972 21.2855 32.3194C21.3453 32.2198 21.4947 32.2796 21.4648 32.3991C19.8113 38.7841 19.9508 44.1132 21.8832 46.9421C22.5904 47.9681 23.5168 48.5558 24.483 48.5856H24.493H24.5029C25.4691 48.5558 26.3955 47.978 27.1027 46.9421C29.0551 44.1132 29.1746 38.7841 27.5211 32.4091C27.4912 32.2995 27.6406 32.2298 27.7004 32.3294C31.0572 38.0071 34.9221 41.6628 38.2988 42.2804C39.6037 42.5194 40.7094 42.2405 41.4166 41.4935C42.1637 40.7862 42.4426 39.6806 42.1936 38.3757C41.5561 34.9989 37.8805 31.154 32.1928 27.8171C32.0932 27.7573 32.1529 27.6079 32.2625 27.6378C38.6574 29.2614 43.9766 29.112 46.8055 27.1497C47.8514 26.4226 48.4291 25.4862 48.4391 24.5001C48.4391 23.514 47.8613 22.5776 46.8154 21.8505Z" />
                </svg>